<svg width="900" height="261" viewBox="0 0 900 261" fill="none" xmlns="http://www.w3.org/2000/svg">
<path d="M319 58.5L396 242L478 58H514V242" stroke="url(#paint0_linear_1_3)" stroke-width="6"/>
<path d="M516.232 237.104C528.52 237.104 538.36 233.792 545.752 227.168C553.24 220.544 556.984 210.56 556.984 197.216C556.984 183.872 552.76 173.264 544.312 165.392C535.96 157.52 525.64 153.584 513.352 153.584C504.616 153.584 497.896 153.776 493.192 154.16V236.096C498.952 236.768 506.632 237.104 516.232 237.104ZM513.352 147.68C527.752 147.68 539.752 152.144 549.352 161.072C559.048 169.904 563.896 181.952 563.896 197.216C563.896 212.48 559.432 223.952 550.504 231.632C541.672 239.312 530.248 243.152 516.232 243.152C506.536 243.152 496.552 242.672 486.28 241.712V148.544C493.96 147.968 502.984 147.68 513.352 147.68ZM616.691 242H610.211V208.592L574.931 148.544H582.851L610.067 194.912C612.179 199.136 613.379 201.392 613.667 201.68C614.243 200.432 615.443 198.224 617.267 195.056L644.483 148.544H651.971L616.691 208.88V242ZM737.449 232.352C731.113 239.744 721.465 243.44 708.505 243.44C695.545 243.44 685.897 239.744 679.561 232.352C673.225 224.96 670.057 214.736 670.057 201.68V148.544H676.681V201.68C676.681 225.584 687.289 237.536 708.505 237.536C729.721 237.536 740.329 225.584 740.329 201.68V148.544H746.953V201.68C746.953 214.736 743.785 224.96 737.449 232.352ZM797.312 154.448H765.632V148.544H835.472V154.448H803.792V242H797.312V154.448Z" fill="url(#paint1_linear_1_3)"/>
<rect x="497.5" y="27.5" width="17" height="15" stroke="#784BE0" stroke-width="5"/>
<path d="M244 59.9877H254.487L260.941 45.0988L268.202 90.5926L278.689 59.9877H286.756L297.244 36L302.891 103L307.731 59.9877H321.244" stroke="url(#paint2_linear_1_3)" stroke-width="5"/>
<defs>
<linearGradient id="paint0_linear_1_3" x1="-21.999" y1="0.000325205" x2="538.001" y2="254" gradientUnits="userSpaceOnUse">
<stop stop-color="#494FF4"/>
<stop offset="0.700198" stop-color="#674ADB"/>
<stop offset="1" stop-color="#A94FF0"/>
</linearGradient>
<linearGradient id="paint1_linear_1_3" x1="469" y1="138" x2="826" y2="252" gradientUnits="userSpaceOnUse">
<stop stop-color="#9E4EEC"/>
<stop offset="0.474485" stop-color="#C42EEA"/>
<stop offset="1" stop-color="#E96AFE"/>
</linearGradient>
<linearGradient id="paint2_linear_1_3" x1="208.303" y1="12.0124" x2="436.083" y2="112.774" gradientUnits="userSpaceOnUse">
<stop stop-color="#494FF4"/>
<stop offset="0.700198" stop-color="#674ADB"/>
<stop offset="1" stop-color="#A94FF0"/>
</linearGradient>
</defs>
</svg>
